<svg version="1.1" xmlns="http://www.w3.org/2000/svg" viewBox="0 0 564.8040727252787 85.31790347452136" width="564.8040727252787" height="85.31790347452136">
  <!-- svg-source:excalidraw -->
  
  <defs>
    <style class="style-fonts">
      @font-face {
        font-family: "Virgil";
        src: url("https://excalidraw.com/Virgil.woff2");
      }
      @font-face {
        font-family: "Cascadia";
        src: url("https://excalidraw.com/Cascadia.woff2");
      }
      @font-face {
        font-family: "Assistant";
        src: url("https://excalidraw.com/Assistant-Regular.woff2");
      }
    </style>
    
  </defs>
  <rect x="0" y="0" width="564.8040727252787" height="85.31790347452136" fill="#ffffff"></rect><g transform="translate(10 50.31790347452136) rotate(0 49.239952087402344 12.5)"><text x="0" y="0" font-family="Virgil, Segoe UI Emoji" font-size="20px" fill="#1e1e1e" text-anchor="start" style="white-space: pre;" direction="ltr" dominant-baseline="text-before-edge">Component</text></g><g transform="translate(198.74024692647856 49.71110627733151) rotate(0 27.199981689453125 12.5)"><text x="0" y="0" font-family="Virgil, Segoe UI Emoji" font-size="20px" fill="#1e1e1e" text-anchor="start" style="white-space: pre;" direction="ltr" dominant-baseline="text-before-edge">HTML</text></g><g stroke-linecap="round"><g transform="translate(116.53782160515038 62.438564598067785) rotate(0 35.48715638875797 -0.058576590705200715)"><path d="M-0.09 0.75 C11.83 0.61, 60.31 -0.65, 72.03 -0.97 M-1.59 0.09 C10.21 0.1, 59.25 0.21, 71.64 0.12" stroke="#1e1e1e" stroke-width="2" fill="none"></path></g><g transform="translate(116.53782160515038 62.438564598067785) rotate(0 35.48715638875797 -0.058576590705200715)"><path d="M48.17 8.71 C57.54 7.52, 63 1.59, 71.64 0.12 M48.17 8.71 C53.72 6.27, 58.53 5.07, 71.64 0.12" stroke="#1e1e1e" stroke-width="2" fill="none"></path></g><g transform="translate(116.53782160515038 62.438564598067785) rotate(0 35.48715638875797 -0.058576590705200715)"><path d="M48.14 -8.39 C57.5 -3.66, 62.97 -3.68, 71.64 0.12 M48.14 -8.39 C53.61 -7.21, 58.42 -4.79, 71.64 0.12" stroke="#1e1e1e" stroke-width="2" fill="none"></path></g></g><mask></mask><g stroke-linecap="round"><g transform="translate(264.09687815963116 60.47331511388592) rotate(0 30.57082977127925 0.2543692845438841)"><path d="M-0.45 0.71 C9.8 0.7, 51.44 0.26, 61.69 0.35 M1.52 0.04 C11.64 0.18, 51.25 1.92, 61.03 1.8" stroke="#1e1e1e" stroke-width="2" fill="none"></path></g><g transform="translate(264.09687815963116 60.47331511388592) rotate(0 30.57082977127925 0.2543692845438841)"><path d="M37.38 9.89 C45.98 8.35, 51.98 4.74, 61.03 1.8 M37.38 9.89 C45.28 6.24, 53.9 4.21, 61.03 1.8" stroke="#1e1e1e" stroke-width="2" fill="none"></path></g><g transform="translate(264.09687815963116 60.47331511388592) rotate(0 30.57082977127925 0.2543692845438841)"><path d="M37.72 -7.21 C46.27 -3.37, 52.17 -1.59, 61.03 1.8 M37.72 -7.21 C45.64 -4.66, 54.14 -0.51, 61.03 1.8" stroke="#1e1e1e" stroke-width="2" fill="none"></path></g></g><mask></mask><g transform="translate(336.46661417843984 47.50496169171987) rotate(0 43.669960021972656 12.5)"><text x="0" y="0" font-family="Virgil, Segoe UI Emoji" font-size="20px" fill="#1e1e1e" text-anchor="start" style="white-space: pre;" direction="ltr" dominant-baseline="text-before-edge">Hydrated</text></g><g transform="translate(495.6241105670756 48.76568529951106) rotate(0 29.589981079101562 12.5)"><text x="0" y="0" font-family="Virgil, Segoe UI Emoji" font-size="20px" fill="#1e1e1e" text-anchor="start" style="white-space: pre;" direction="ltr" dominant-baseline="text-before-edge">React</text></g><g stroke-linecap="round"><g transform="translate(432.70919747503103 59.0492682144353) rotate(0 27.261666994205598 0.23538031534323522)"><path d="M1.09 -0.39 C10.52 -0.1, 46.5 0.58, 55.48 0.65 M0.2 -1.65 C9.65 -1.04, 46 1.82, 55.03 2.28" stroke="#1e1e1e" stroke-width="2" fill="none"></path></g><g transform="translate(432.70919747503103 59.0492682144353) rotate(0 27.261666994205598 0.23538031534323522)"><path d="M31.02 9.25 C35.42 9.17, 41.38 6.82, 55.03 2.28 M31.02 9.25 C37.15 7.24, 44.21 6.36, 55.03 2.28" stroke="#1e1e1e" stroke-width="2" fill="none"></path></g><g transform="translate(432.70919747503103 59.0492682144353) rotate(0 27.261666994205598 0.23538031534323522)"><path d="M32.16 -7.81 C36.17 -4.33, 41.89 -3.13, 55.03 2.28 M32.16 -7.81 C38.09 -5.34, 44.85 -1.73, 55.03 2.28" stroke="#1e1e1e" stroke-width="2" fill="none"></path></g></g><mask></mask><g transform="translate(127.42178952868449 10) rotate(0 98.99991607666016 12.5)"><text x="0" y="0" font-family="Virgil, Segoe UI Emoji" font-size="20px" fill="#1e1e1e" text-anchor="start" style="white-space: pre;" direction="ltr" dominant-baseline="text-before-edge">(even in "use client")</text></g></svg>